<?xml version="1.0" standalone="no"?>
<!DOCTYPE svg PUBLIC "-//W3C//DTD SVG 20010904//EN"
 "http://www.w3.org/TR/2001/REC-SVG-20010904/DTD/svg10.dtd">
<svg version="1.0" xmlns="http://www.w3.org/2000/svg"
 width="512.000000pt" height="512.000000pt" viewBox="0 0 512.000000 512.000000"
 preserveAspectRatio="xMidYMid meet">

<g transform="translate(0.000000,512.000000) scale(0.100000,-0.100000)"
fill="#000000" stroke="none">
<path d="M2315 5109 c-585 -56 -1145 -320 -1564 -740 -1000 -999 -1000 -2619
0 -3618 999 -1000 2619 -1000 3618 0 1000 999 1000 2619 0 3618 -539 540
-1294 812 -2054 740z m1190 -978 c109 -31 176 -64 270 -132 249 -180 375 -409
375 -682 0 -299 -67 -468 -256 -655 l-105 -102 109 -108 c163 -162 232 -302
254 -515 24 -238 -36 -453 -177 -637 -90 -116 -185 -189 -344 -260 -185 -83
-116 -80 -1503 -80 -748 0 -1229 4 -1233 9 -3 5 -5 504 -5 1108 1 984 4 1311
15 1321 2 2 49 -31 105 -75 55 -43 147 -113 203 -156 56 -42 127 -97 157 -121
30 -24 89 -66 130 -93 41 -28 145 -107 232 -175 86 -69 190 -150 232 -179 117
-83 223 -162 306 -229 41 -34 120 -91 174 -127 55 -36 133 -92 174 -124 40
-33 78 -57 83 -54 5 4 9 139 9 319 l0 314 31 6 c17 3 165 6 329 6 287 0 300 1
374 24 255 81 416 294 416 550 0 251 -206 511 -441 555 -34 6 -417 10 -1043
11 l-989 0 56 -42 c314 -242 596 -448 612 -448 14 0 16 11 14 78 -1 42 2 110
6 150 l8 72 143 0 144 0 0 -461 0 -461 -27 17 c-29 19 -289 216 -408 309 -38
30 -110 83 -159 118 -49 35 -143 106 -210 158 -66 52 -151 118 -188 145 -37
28 -102 76 -145 108 -43 32 -136 100 -208 151 l-130 93 -3 149 c-1 81 0 154 2
161 5 11 231 13 1268 10 l1263 -3 80 -23z"/>
<path d="M1189 2798 c0 -10 0 -1413 1 -1516 0 -10 218 -12 1076 -11 592 0
1101 4 1132 9 129 21 240 88 327 198 55 68 107 175 125 254 31 137 -24 337
-129 468 -76 95 -140 138 -261 177 -79 26 -97 28 -265 28 l-180 0 -3 -472 c-2
-395 -4 -473 -16 -473 -8 0 -16 7 -20 15 -3 8 -12 15 -19 15 -8 0 -21 7 -28
17 -8 9 -86 70 -174 137 -88 66 -214 163 -280 215 -246 194 -315 247 -386 296
-78 53 -241 175 -429 319 -63 48 -173 131 -245 182 -71 52 -148 108 -169 124
-43 33 -56 37 -57 18z"/>
</g>
</svg>
